<svg width="52" height="51" viewBox="0 0 52 51" fill="none" xmlns="http://www.w3.org/2000/svg">
<path d="M19.7621 46.75H32.6573C43.4033 46.75 47.7016 42.5 47.7016 31.875V19.125C47.7016 8.5 43.4033 4.25 32.6573 4.25H19.7621C9.01616 4.25 4.71777 8.5 4.71777 19.125V31.875C4.71777 42.5 9.01616 46.75 19.7621 46.75Z" stroke="#6B6B64" stroke-width="1.5" stroke-linecap="round" stroke-linejoin="round"/>
<path d="M26.2097 32.9375C27.1975 32.9375 28.1757 32.7451 29.0883 32.3714C30.0009 31.9976 30.8302 31.4497 31.5287 30.7591C32.2272 30.0685 32.7812 29.2486 33.1593 28.3462C33.5373 27.4438 33.7319 26.4767 33.7319 25.5C33.7319 24.5233 33.5373 23.5562 33.1593 22.6538C32.7812 21.7514 32.2272 20.9315 31.5287 20.2409C30.8302 19.5503 30.0009 19.0024 29.0883 18.6286C28.1757 18.2549 27.1975 18.0625 26.2097 18.0625C24.2147 18.0625 22.3014 18.8461 20.8907 20.2409C19.48 21.6357 18.6875 23.5275 18.6875 25.5C18.6875 27.4725 19.48 29.3643 20.8907 30.7591C22.3014 32.1539 24.2147 32.9375 26.2097 32.9375V32.9375Z" stroke="#6B6B64" stroke-width="1.5" stroke-linecap="round" stroke-linejoin="round"/>
<path d="M38.3226 14.875H38.3477" stroke="#6B6B64" stroke-width="2" stroke-linecap="round" stroke-linejoin="round"/>
</svg>
