<svg width="52" height="51" viewBox="0 0 52 51" fill="none" xmlns="http://www.w3.org/2000/svg">
<path d="M14.8294 43.775C18.0532 45.6875 21.9218 46.75 25.7903 46.75C37.6109 46.75 47.2823 37.1875 47.2823 25.5C47.2823 13.8125 37.6109 4.25 25.7903 4.25C13.9698 4.25 4.2984 13.8125 4.2984 25.5C4.2984 29.325 5.373 32.9375 7.09235 36.125L5.24405 43.1502C5.14869 43.5129 5.15202 43.8941 5.25371 44.2551C5.3554 44.6161 5.55182 44.944 5.82307 45.2058C6.09431 45.4675 6.43072 45.6536 6.7982 45.7453C7.16567 45.837 7.55113 45.831 7.91549 45.7279L14.8294 43.775Z" stroke="#6B6B64" stroke-width="1.5" stroke-miterlimit="10" stroke-linecap="round" stroke-linejoin="round"/>
<path d="M35.4617 31.552C35.4617 31.8962 35.3843 32.2511 35.2188 32.5954C35.05 32.9511 34.8283 33.2798 34.5612 33.5708C34.0862 34.0871 33.564 34.459 32.9708 34.6991C32.3905 34.9393 31.7608 35.0625 31.0838 35.0625C30.0952 35.0625 29.0399 34.833 27.9245 34.3655C26.7453 33.86 25.6277 33.2241 24.5932 32.47C23.4681 31.6574 22.4063 30.7624 21.4167 29.7925C20.4377 28.8195 19.5346 27.7745 18.7152 26.6666C17.9622 25.6527 17.325 24.5595 16.8153 23.4069C16.3511 22.3125 16.119 21.2713 16.119 20.2789C16.119 19.6286 16.235 19.0081 16.4671 18.4344C16.6992 17.85 17.0689 17.3145 17.5826 16.8364C18.2015 16.2329 18.8785 15.9375 19.5964 15.9375C19.8672 15.9375 20.1379 15.9949 20.3808 16.1096C20.6323 16.2244 20.8536 16.3965 21.0299 16.6451L23.2779 19.7731C23.4499 20.0111 23.5788 20.2321 23.6648 20.4425C23.7507 20.6422 23.8002 20.8441 23.8002 21.0248C23.7974 21.2658 23.7267 21.5013 23.596 21.7047C23.4468 21.9535 23.2646 22.1815 23.0544 22.3826L22.3172 23.1391C22.266 23.1887 22.2257 23.2484 22.1991 23.3142C22.1724 23.3801 22.16 23.4507 22.1625 23.5216C22.1625 23.596 22.1732 23.664 22.1926 23.7405C22.2205 23.817 22.2506 23.8744 22.27 23.9318C22.4419 24.2484 22.7428 24.6585 23.1705 25.1558C23.6067 25.653 24.071 26.1609 24.5739 26.6666C25.0983 27.1745 25.6012 27.642 26.1149 28.0734C26.6178 28.492 27.0347 28.7789 27.3635 28.951L27.5398 29.0296C27.617 29.0569 27.6986 29.0698 27.7805 29.0679C27.8546 29.0694 27.9283 29.0557 27.9967 29.0275C28.0652 28.9994 28.127 28.9574 28.1781 28.9043L28.9131 28.186C29.156 27.948 29.3881 27.7674 29.6116 27.6505C29.8171 27.521 30.0556 27.4517 30.2993 27.4508C30.5028 27.4537 30.7036 27.4963 30.8904 27.5761C31.1031 27.6611 31.3267 27.7844 31.5674 27.948L34.774 30.1963C35.0063 30.3457 35.1911 30.5572 35.307 30.8061C35.4074 31.0423 35.46 31.2958 35.4617 31.552V31.552Z" stroke="#6B6B64" stroke-width="1.5" stroke-miterlimit="10"/>
</svg>
